<svg width="32" height="32" viewBox="0 0 32 32" fill="none" xmlns="http://www.w3.org/2000/svg">
<path fill-rule="evenodd" clip-rule="evenodd" d="M16 0C7.16344 0 0 7.16344 0 16C0 24.8366 7.16344 32 16 32C24.8366 32 32 24.8366 32 16C32 7.16344 24.8366 0 16 0ZM24.1766 12.0488C23.9804 11.2948 23.4021 10.7011 22.6677 10.4996C21.3369 10.1333 16 10.1333 16 10.1333C16 10.1333 10.663 10.1333 9.33214 10.4996C8.59779 10.7011 8.01946 11.2948 7.82319 12.0488C7.46663 13.4154 7.46663 16.2667 7.46663 16.2667C7.46663 16.2667 7.46663 19.1179 7.82319 20.4845C8.01946 21.2385 8.59779 21.8323 9.33214 22.0339C10.663 22.4 16 22.4 16 22.4C16 22.4 21.3369 22.4 22.6677 22.0339C23.4021 21.8323 23.9804 21.2385 24.1766 20.4845C24.5333 19.1179 24.5333 16.2667 24.5333 16.2667C24.5333 16.2667 24.5333 13.4154 24.1766 12.0488ZM14.4001 19.2V13.8667L18.6667 16.5334L14.4001 19.2Z" fill="#A2A2A2"/>
</svg>
