<svg width="32" height="32" viewBox="0 0 32 32" fill="none" xmlns="http://www.w3.org/2000/svg">
<path fill-rule="evenodd" clip-rule="evenodd" d="M0 16C0 7.16344 7.16344 0 16 0C24.8366 0 32 7.16344 32 16C32 24.8366 24.8366 32 16 32C7.16344 32 0 24.8366 0 16ZM6.67403 18.5574L7.48976 18.5572C8.28209 18.557 9.04575 18.5568 9.80942 18.5586C9.95958 18.5592 10.1104 18.5648 10.2593 18.5842C10.8123 18.6558 11.0777 18.9786 11.0578 19.547C11.0403 20.0617 10.7176 20.4001 10.1785 20.4032C8.50497 20.4138 6.83083 20.4119 5.1573 20.4013C4.71947 20.3989 4.32144 20.2736 4.10976 19.8156C3.89145 19.3432 4.01991 18.9244 4.30938 18.543C4.97954 17.6592 5.65136 16.7768 6.32321 15.8943L6.32401 15.8932L6.32427 15.8929L6.32452 15.8925C6.86686 15.1801 7.40922 14.4677 7.95074 13.7546C7.96942 13.7301 7.99308 13.7053 8.01715 13.6801C8.08633 13.6077 8.1589 13.5317 8.12624 13.4498C8.08235 13.3408 7.97688 13.3574 7.87544 13.3733C7.83889 13.3791 7.80286 13.3847 7.77042 13.3844C7.02177 13.3774 6.27311 13.378 5.52446 13.3787L5.36416 13.3788C5.14223 13.3788 4.92271 13.3638 4.71103 13.2934C4.36667 13.1787 4.14595 12.8697 4.1369 12.502C4.12846 12.1393 4.34014 11.8215 4.68389 11.6919C4.89316 11.6127 5.11328 11.5884 5.33461 11.5884C6.75847 11.5865 8.18172 11.5859 9.60558 11.5884C9.83656 11.589 10.0669 11.6121 10.2852 11.6987C10.7804 11.8938 10.9884 12.3686 10.8003 12.8815C10.664 13.2529 10.4469 13.5776 10.2117 13.8873C9.62237 14.6624 9.03237 15.4369 8.44233 16.2115L8.43948 16.2152L8.43593 16.2199L8.4358 16.22L8.43348 16.2231L8.42906 16.2289C7.93239 16.8809 7.4357 17.5329 6.93939 18.1853C6.88582 18.2545 6.83581 18.3262 6.77409 18.4148C6.74409 18.4578 6.71132 18.5048 6.67403 18.5574ZM18.1143 18.1498C18.1148 17.9167 18.1153 17.6836 18.1153 17.4506L18.1139 17.4505C18.1135 17.4504 18.1131 17.4503 18.1127 17.4502C18.1125 17.4501 18.1123 17.45 18.1121 17.4499C18.1121 17.223 18.1123 16.9961 18.1125 16.7692C18.1129 16.24 18.1133 15.7109 18.1115 15.1814C18.1095 14.6433 17.9139 14.3278 17.4906 14.1632C17.0397 13.9886 16.6049 14.0834 16.2547 14.4774C16.1097 14.6402 16.0295 14.6128 15.8801 14.4993C15.3676 14.1108 14.7891 13.91 14.1285 13.9456C12.7007 14.0216 11.3564 15.2301 11.1172 16.6543C10.987 17.4287 11.0813 18.182 11.3231 18.9222C11.9644 20.8864 14.5729 21.6084 15.8743 20.433C16.0289 20.294 16.145 20.3514 16.2771 20.4879C16.6382 20.862 17.0371 20.9481 17.49 20.7654C17.9389 20.5839 18.1217 20.2441 18.1172 19.7814C18.1119 19.2375 18.1131 18.6937 18.1143 18.1498ZM13.1543 17.587C13.1529 17.5542 13.1515 17.5214 13.1497 17.4886C13.1504 17.107 13.2395 16.7491 13.4531 16.4279C14.0028 15.5974 15.2547 15.6167 15.7685 16.4691C16.0744 16.976 16.1238 17.5217 15.9462 18.0829C15.7287 18.77 15.1419 19.1809 14.4723 19.1217C13.7962 19.0618 13.2389 18.4969 13.1677 17.7979C13.1602 17.728 13.1573 17.6576 13.1543 17.587ZM21.6494 17.5305C21.6533 15.9432 22.4482 14.6821 23.7832 14.1861C26.0904 13.3294 29.091 14.7527 28.6653 17.9954C28.4919 19.317 27.7875 20.2822 26.4789 20.7402C25.1535 21.2044 23.8866 21.069 22.7853 20.1581C21.9615 19.4767 21.616 18.5751 21.6494 17.5305ZM26.6021 17.3939L26.6025 17.3805C26.6036 17.3492 26.6063 17.2721 26.6015 17.1955C26.5546 16.5035 26.0506 15.9107 25.4309 15.8153C24.7496 15.7104 24.1377 16.0268 23.884 16.6508C23.6137 17.3159 23.6419 17.9736 24.0824 18.5688C24.6141 19.2876 25.7533 19.2752 26.2779 18.5551C26.5122 18.2338 26.624 17.8719 26.6021 17.3939ZM19.2953 14.8535C19.2957 15.2276 19.2961 15.6017 19.2961 15.9757C19.2961 16.2837 19.296 16.5916 19.2958 16.8995C19.2956 17.5151 19.2954 18.1306 19.2961 18.746C19.2964 18.86 19.2958 18.974 19.2953 19.088C19.2937 19.404 19.2922 19.72 19.3086 20.0345C19.3352 20.5511 19.6477 20.9351 20.0504 20.9927C20.4531 21.0502 20.8416 20.7644 20.9935 20.3054C21.0478 20.1412 21.0554 19.9712 21.0554 19.7992C21.0556 18.9873 21.056 18.1753 21.0564 17.3632C21.057 16.1454 21.0576 14.9275 21.0576 13.7096C21.0576 13.5731 21.058 13.4365 21.0583 13.2999C21.0595 12.8674 21.0607 12.4346 21.05 12.0022C21.0342 11.3783 20.681 10.993 20.1578 11.0001C19.6271 11.0079 19.3021 11.4145 19.2983 12.1095C19.2933 13.024 19.2943 13.9388 19.2953 14.8535Z" fill="#A2A2A2"/>
</svg>
